# xmcd
#
# Track frame offsets:
# 150
# 13015
# 26377
# 41922
# 55950
# 71030
# 82792
# 104316
# 118738
# 137370
# 150035
# 164398
# 183763
# 197834
# 213771
# 231608
# 244751
# 260470
# 273342
# 290066
#
# Disc length: 4032 seconds
#
# Revision: 3
# Processed by: cddbd v1.4PL0 Copyright (c) Steve Scherf et al.
# Submitted via: Axialis_AX_CDPlayer 2.6
#
DISCID=130fbe14
DTITLE=Anne Murray - Signature Series Volume 4 A Love Song - Highly Prized P
DTITLE=ossession
DYEAR=1900
DGENRE=
TTITLE0=A Love Song
TTITLE1=Just One Look
TTITLE2=Another Pot O'Tea
TTITLE3=Children of My Mind
TTITLE4=Real Emotion
TTITLE5=Watching the River Run
TTITLE6=Backstreet Lovin'
TTITLE7=Son of a Rotten Gambler
TTITLE8=You Won't See Me
TTITLE9=Send A Little Love My Way
TTITLE10=Dream Lover
TTITLE11=Slow Fall
TTITLE12=Lullaby
TTITLE13=Saved by the Grace of Your Love
TTITLE14=When We Both Had the Time to Love
TTITLE15=Day Tripper
TTITLE16=Lift Your Hearts to the Sun
TTITLE17=Uproar
TTITLE18=Highly Prized Possession
TTITLE19=Please Don't Sell Nova Scotia
EXTD=
EXTT0=
EXTT1=
EXTT2=
EXTT3=
EXTT4=
EXTT5=
EXTT6=
EXTT7=
EXTT8=
EXTT9=
EXTT10=
EXTT11=
EXTT12=
EXTT13=
EXTT14=
EXTT15=
EXTT16=
EXTT17=
EXTT18=
EXTT19=
PLAYORDER=
